<?xml version="1.0" standalone="no"?><!DOCTYPE svg PUBLIC "-//W3C//DTD SVG 1.1//EN" "http://www.w3.org/Graphics/SVG/1.1/DTD/svg11.dtd"><svg t="1715699273732" class="icon" viewBox="0 0 1024 1024" version="1.1" xmlns="http://www.w3.org/2000/svg" p-id="4288" xmlns:xlink="http://www.w3.org/1999/xlink" width="200" height="200"><path d="M706.104889 462.779733a76.913778 76.913778 0 1 0-77.368889-76.925155 77.152711 77.152711 0 0 0 77.368889 76.925155zM536.9856 657.863111L249.0368 384.864711a59.164444 59.164444 0 0 0-16.167822 12.1856L112.890311 522.9568l-6.314667-234.450489a51.734756 51.734756 0 0 1 50.164623-52.770133l212.343466-5.688889 49.823289-52.622222-263.554844 7.099733a102.957511 102.957511 0 0 0-100.340622 105.426489l7.702755 285.582222 4.733156 175.524978a102.855111 102.855111 0 0 0 105.870222 99.794489l185.230222-4.994845 12.629333-0.341333 49.823289-52.622222 122.2656-129.069511z" fill="#707070" p-id="4289"></path><path d="M880.048356 199.202133l-255.556267-35.6352-58.026667 43.633778 306.4832 42.723556a51.620978 51.620978 0 0 1 43.986489 58.026666l-57.173333 410.020978-127.203556-167.389867a62.998756 62.998756 0 0 0-87.904711-12.276622l-46.307555 34.816 68.448711 90.612622-58.185956 43.963734-83.740444 63.249066-57.799111 43.656534 35.965155 5.006222 284.922311 39.742578a102.661689 102.661689 0 0 0 115.643734-83.774578 23.540622 23.540622 0 0 0 0.682666-3.618133l63.715556-456.920178a102.855111 102.855111 0 0 0-87.984356-115.871289z" fill="#707070" p-id="4290"></path></svg>