<?xml version="1.0" standalone="no"?><!DOCTYPE svg PUBLIC "-//W3C//DTD SVG 1.1//EN" "http://www.w3.org/Graphics/SVG/1.1/DTD/svg11.dtd"><svg t="1716042020112" class="icon" viewBox="0 0 1024 1024" version="1.1" xmlns="http://www.w3.org/2000/svg" p-id="4450" xmlns:xlink="http://www.w3.org/1999/xlink" width="200" height="200"><path d="M529.60189 707.895599c-209.749118 0-380.022153-220.269729-380.022153-227.740888 0-8.283664 170.273035-228.553393 380.022153-228.553393 210.677257 0 383.808386 229.80592 380.954385 228.553393C907.694087 478.091726 740.279147 707.895599 529.60189 707.895599L529.60189 707.895599zM528.163121 324.601936c-88.947821 0-160.751171 67.62519-160.751171 151.822824 0 83.389222 71.803349 151.404292 160.751171 151.404292 89.407286 0 161.701822-68.010977 161.701822-151.404292C689.864944 392.226103 617.570407 324.601936 528.163121 324.601936L528.163121 324.601936zM527.699564 542.801517c-42.335201 0-76.592422-32.345686-76.592422-71.76344 0-39.416731 34.257222-71.354118 76.592422-71.354118 42.307571 0 76.076676 31.93841 76.076676 71.354118C603.77624 510.454808 570.007135 542.801517 527.699564 542.801517L527.699564 542.801517z" fill="#272636" p-id="4451"></path></svg>