<?xml version="1.0" standalone="no"?><!DOCTYPE svg PUBLIC "-//W3C//DTD SVG 1.1//EN" "http://www.w3.org/Graphics/SVG/1.1/DTD/svg11.dtd"><svg t="1716042044290" class="icon" viewBox="0 0 1024 1024" version="1.1" xmlns="http://www.w3.org/2000/svg" p-id="5505" xmlns:xlink="http://www.w3.org/1999/xlink" width="200" height="200"><path d="M510.138182 143.592727h-3.258182A365.149091 365.149091 0 0 0 139.636364 513.163636a380.509091 380.509091 0 0 0 376.087272 375.156364h3.490909A365.149091 365.149091 0 0 0 884.363636 518.749091 379.810909 379.810909 0 0 0 510.138182 143.592727zM744.727273 748.450909a319.767273 319.767273 0 0 1-229.236364 93.090909A333.730909 333.730909 0 0 1 186.181818 512 318.603636 318.603636 0 0 1 506.88 190.138182h3.025455A333.265455 333.265455 0 0 1 837.818182 518.981818a318.138182 318.138182 0 0 1-93.090909 229.469091z" p-id="5506"></path><path d="M605.090909 535.272727h-93.090909v-186.181818a23.272727 23.272727 0 0 0-46.545455 0v209.454546a23.272727 23.272727 0 0 0 23.272728 23.272727h116.363636a23.272727 23.272727 0 0 0 0-46.545455z" p-id="5507"></path></svg>