<?xml version="1.0" standalone="no"?><!DOCTYPE svg PUBLIC "-//W3C//DTD SVG 1.1//EN" "http://www.w3.org/Graphics/SVG/1.1/DTD/svg11.dtd"><svg t="1716041998296" class="icon" viewBox="0 0 1024 1024" version="1.1" xmlns="http://www.w3.org/2000/svg" p-id="3427" xmlns:xlink="http://www.w3.org/1999/xlink" width="200" height="200"><path d="M789.333333 554.666667v234.666666a42.666667 42.666667 0 0 1-42.666666 42.666667h-149.333334a21.333333 21.333333 0 0 1-21.333333-21.333333v-128a42.666667 42.666667 0 0 0-42.666667-42.666667h-42.666666a42.666667 42.666667 0 0 0-42.666667 42.666667v128a21.333333 21.333333 0 0 1-21.333333 21.333333h-149.333334a42.666667 42.666667 0 0 1-42.666666-42.666667V554.666667l263.552-222.997334a21.333333 21.333333 0 0 1 27.562666 0L789.333333 554.666667z m0-64L525.781333 267.669333a21.333333 21.333333 0 0 0-27.562666 0L234.666667 490.666667v0.106666l-38.656 32.426667a32 32 0 0 1-45.077334-3.946667l-1.344-1.578666a32 32 0 0 1 3.946667-45.098667L290.133333 357.973333c1.173333-0.981333 2.368-1.856 3.626667-2.645333l163.114667-138.026667a85.333333 85.333333 0 0 1 110.250666 0l163.114667 138.026667c1.258667 0.789333 2.453333 1.664 3.626667 2.645333l136.149333 114.24a32 32 0 0 1 3.946667 45.077334l-1.237334 1.493333a32 32 0 0 1-45.098666 3.925333L789.333333 490.56V490.666667z" fill="#2A2A37" p-id="3428"></path></svg>