<svg t="1727454208854" class="icon" viewBox="0 0 1088 1024" version="1.1" xmlns="http://www.w3.org/2000/svg" p-id="5262" width="200" height="200"><path d="M1008 592a160 160 0 0 1-160 160v160a64 64 0 0 1-64 64h-640a64 64 0 0 1-64-64v-234.24h104.32a87.68 87.68 0 0 0 87.296-79.232l0.384-8.448a87.68 87.68 0 0 0-87.68-87.68H80v-230.4a64 64 0 0 1 64-64h160a160 160 0 1 1 320 0h160a64 64 0 0 1 64 64v160a160 160 0 0 1 160 160z m-74.24 0c0-47.36-38.4-85.76-85.76-85.76h-74.24v-211.2a12.8 12.8 0 0 0-12.8-12.8h-211.2V208a85.76 85.76 0 0 0-171.52 0v74.24h-211.2a12.8 12.8 0 0 0-12.8 12.8v133.12h30.08c85.824 0 156.096 66.816 161.472 154.368l0.384 11.072-0.64 11.968A161.92 161.92 0 0 1 184.32 752h-30.08v136.96a12.8 12.8 0 0 0 12.8 12.8h593.92a12.8 12.8 0 0 0 12.8-12.8v-211.2h74.24c47.36 0 85.76-38.4 85.76-85.76z" p-id="5263"></path></svg>